<svg width="100" height="100" viewBox="0 0 150 150" fill="none" xmlns="http://www.w3.org/2000/svg">
<g clip-path="url(#clip0_1_946)">
<circle cx="75" cy="75" r="75" fill="black"/>
<circle cx="75" cy="75" r="17" fill="#FF0000"/>
<circle cx="75" cy="75" r="5" fill="white"/>
<path d="M75.1735 96.9374C75.1735 96.9374 75.4548 115.406 75.1736 122.062C74.8923 128.719 75.1735 144.75 75.1735 144.75" stroke="white" stroke-width="8" stroke-linecap="round"/>
<path d="M30.796 125.909C-4.55992 88.8721 5.90081 49.7973 30.442 23.3405C30.6772 23.0868 30.9094 22.8319 31.1618 22.5953C32.4752 21.3645 37.0951 17.7313 41.25 22.9607C46.1533 29.132 20.3419 56.9029 30.796 59.4276C39.1089 61.4351 51.9261 27.7314 56.8278 13.841C58.0341 10.4226 61.3902 8.23689 64.9999 8.57058V8.57058C69.7334 9.00815 72.9647 13.5756 71.2109 17.9939C57.3483 52.9172 18.3088 77.9605 58.8277 139" stroke="white" stroke-width="8" stroke-linecap="round"/>
<path d="M79 39.0556C109.457 46.2327 109.457 77.8744 109.457 77.8744M89.0582 140C113.405 107.564 109.457 77.8744 109.457 77.8744M109.457 77.8744C128.633 61.5188 141.887 77.8744 141.887 77.8744M141.887 77.8744C141.887 77.8744 146.963 30.4805 89.0582 11M141.887 77.8744C141.887 77.8744 141.499 114.387 109.457 131.704" stroke="white" stroke-width="8" stroke-linecap="round"/>
</g>
<defs>
<clipPath id="clip0_1_946">
<rect width="150" height="150" fill="white"/>
</clipPath>
</defs>
</svg>
